<svg xmlns="http://www.w3.org/2000/svg"
     width="600" height="228"
     viewBox="0 0 600 228"
     font-family="system-ui, -apple-system, sans-serif">
  <rect width="600" height="228" fill="white"/>
  <text x="82" y="16.0" text-anchor="end" dominant-baseline="central" font-size="12" fill="#374151">Clip</text>
  <rect x="90" y="4" width="101.9" height="24" rx="2" fill="#0077b6"/>
  <text x="197.9126854393486" y="16.0" text-anchor="start" dominant-baseline="central" font-size="11" fill="#374151">135 ns  (232 B)</text>
  <text x="82" y="44.0" text-anchor="end" dominant-baseline="central" font-size="12" fill="#374151">ClipZero</text>
  <rect x="90" y="32" width="87.3" height="24" rx="2" fill="#00a0c4"/>
  <text x="183.3062332294976" y="44.0" text-anchor="start" dominant-baseline="central" font-size="11" fill="#374151">116 ns  (176 B)</text>
  <text x="82" y="72.0" text-anchor="end" dominant-baseline="central" font-size="12" fill="#374151">ClipMEL</text>
  <rect x="90" y="60" width="162.6" height="24" rx="2" fill="#40c9e0"/>
  <text x="246.63562902877587" y="72.0" text-anchor="end" dominant-baseline="central" font-size="11" fill="white">215 ns  (688 B)</text>
  <text x="82" y="100.0" text-anchor="end" dominant-baseline="central" font-size="12" fill="#374151">MEL</text>
  <rect x="90" y="88" width="421.3" height="24" rx="2" fill="#7b2d8b"/>
  <text x="505.34287388582175" y="100.0" text-anchor="end" dominant-baseline="central" font-size="11" fill="white">558 ns  (744 B)</text>
  <text x="82" y="128.0" text-anchor="end" dominant-baseline="central" font-size="12" fill="#374151">MELSrcGen</text>
  <rect x="90" y="116" width="408.4" height="24" rx="2" fill="#b185c9"/>
  <text x="492.4366036455602" y="128.0" text-anchor="end" dominant-baseline="central" font-size="11" fill="white">541 ns  (760 B)</text>
  <text x="82" y="156.0" text-anchor="end" dominant-baseline="central" font-size="12" fill="#374151">Serilog</text>
  <rect x="90" y="144" width="490.0" height="24" rx="2" fill="#e63946"/>
  <text x="574.0" y="156.0" text-anchor="end" dominant-baseline="central" font-size="11" fill="white">648 ns  (1344 B)</text>
  <text x="82" y="184.0" text-anchor="end" dominant-baseline="central" font-size="12" fill="#374151">ZLogger</text>
  <rect x="90" y="172" width="391.4" height="24" rx="2" fill="#2a9d8f"/>
  <text x="475.35166394226314" y="184.0" text-anchor="end" dominant-baseline="central" font-size="11" fill="white">518 ns  (200 B)</text>
  <text x="82" y="212.0" text-anchor="end" dominant-baseline="central" font-size="12" fill="#374151">NLog</text>
  <rect x="90" y="200" width="319.4" height="24" rx="2" fill="#f4a261"/>
  <text x="403.3621811676896" y="212.0" text-anchor="end" dominant-baseline="central" font-size="11" fill="white">423 ns  (1288 B)</text>
</svg>
