<svg xmlns="http://www.w3.org/2000/svg"
     width="600" height="284"
     viewBox="0 0 600 284"
     font-family="system-ui, -apple-system, sans-serif">
  <rect width="600" height="284" fill="white"/>
  <text x="82" y="16.0" text-anchor="end" dominant-baseline="central" font-size="12" fill="#374151">Clip</text>
  <rect x="90" y="4" width="35.5" height="24" rx="2" fill="#0077b6"/>
  <text x="131.5178480978913" y="16.0" text-anchor="start" dominant-baseline="central" font-size="11" fill="#374151">27 ns</text>
  <text x="82" y="44.0" text-anchor="end" dominant-baseline="central" font-size="12" fill="#374151">ClipZero</text>
  <rect x="90" y="32" width="35.9" height="24" rx="2" fill="#00a0c4"/>
  <text x="131.92279597984592" y="44.0" text-anchor="start" dominant-baseline="central" font-size="11" fill="#374151">28 ns</text>
  <text x="82" y="72.0" text-anchor="end" dominant-baseline="central" font-size="12" fill="#374151">ClipMEL</text>
  <rect x="90" y="60" width="103.4" height="24" rx="2" fill="#40c9e0"/>
  <text x="187.41846391725093" y="72.0" text-anchor="end" dominant-baseline="central" font-size="11" fill="white">79 ns  (320 B)</text>
  <text x="82" y="100.0" text-anchor="end" dominant-baseline="central" font-size="12" fill="#374151">MEL</text>
  <rect x="90" y="88" width="487.1" height="24" rx="2" fill="#7b2d8b"/>
  <text x="571.0608621471035" y="100.0" text-anchor="end" dominant-baseline="central" font-size="11" fill="white">373 ns  (304 B)</text>
  <text x="82" y="128.0" text-anchor="end" dominant-baseline="central" font-size="12" fill="#374151">MELSrcGen</text>
  <rect x="90" y="116" width="490.0" height="24" rx="2" fill="#b185c9"/>
  <text x="574.0" y="128.0" text-anchor="end" dominant-baseline="central" font-size="11" fill="white">375 ns  (320 B)</text>
  <text x="82" y="156.0" text-anchor="end" dominant-baseline="central" font-size="12" fill="#374151">Serilog</text>
  <rect x="90" y="144" width="361.0" height="24" rx="2" fill="#e63946"/>
  <text x="444.9653168403935" y="156.0" text-anchor="end" dominant-baseline="central" font-size="11" fill="white">276 ns  (416 B)</text>
  <text x="82" y="184.0" text-anchor="end" dominant-baseline="central" font-size="12" fill="#374151">ZLogger</text>
  <rect x="90" y="172" width="446.7" height="24" rx="2" fill="#2a9d8f"/>
  <text x="530.7358908053637" y="184.0" text-anchor="end" dominant-baseline="central" font-size="11" fill="white">342 ns</text>
  <text x="82" y="212.0" text-anchor="end" dominant-baseline="central" font-size="12" fill="#374151">NLog</text>
  <rect x="90" y="200" width="187.9" height="24" rx="2" fill="#f4a261"/>
  <text x="271.93500573165204" y="212.0" text-anchor="end" dominant-baseline="central" font-size="11" fill="white">144 ns  (304 B)</text>
  <text x="82" y="240.0" text-anchor="end" dominant-baseline="central" font-size="12" fill="#374151">Log4Net</text>
  <rect x="90" y="228" width="237.6" height="24" rx="2" fill="#8d99ae"/>
  <text x="321.59990402815174" y="240.0" text-anchor="end" dominant-baseline="central" font-size="11" fill="white">182 ns  (392 B)</text>
  <text x="82" y="268.0" text-anchor="end" dominant-baseline="central" font-size="12" fill="#374151">ZeroLog</text>
  <rect x="90" y="256" width="147.8" height="24" rx="2" fill="#e76f51"/>
  <text x="231.77985124363516" y="268.0" text-anchor="end" dominant-baseline="central" font-size="11" fill="white">113 ns</text>
</svg>
