<svg xmlns="http://www.w3.org/2000/svg"
     width="600" height="284"
     viewBox="0 0 600 284"
     font-family="system-ui, -apple-system, sans-serif">
  <rect width="600" height="284" fill="white"/>
  <text x="82" y="16.0" text-anchor="end" dominant-baseline="central" font-size="12" fill="#374151">Clip</text>
  <rect x="90" y="4" width="247.6" height="24" rx="2" fill="#0077b6"/>
  <text x="331.63589544604747" y="16.0" text-anchor="end" dominant-baseline="central" font-size="11" fill="white">1,719 ns  (2480 B)</text>
  <text x="82" y="44.0" text-anchor="end" dominant-baseline="central" font-size="12" fill="#374151">ClipZero</text>
  <rect x="90" y="32" width="245.6" height="24" rx="2" fill="#00a0c4"/>
  <text x="329.56174820981335" y="44.0" text-anchor="end" dominant-baseline="central" font-size="11" fill="white">1,705 ns  (2448 B)</text>
  <text x="82" y="72.0" text-anchor="end" dominant-baseline="central" font-size="12" fill="#374151">ClipMEL</text>
  <rect x="90" y="60" width="259.2" height="24" rx="2" fill="#40c9e0"/>
  <text x="343.1531741272473" y="72.0" text-anchor="end" dominant-baseline="central" font-size="11" fill="white">1,799 ns  (2744 B)</text>
  <text x="82" y="100.0" text-anchor="end" dominant-baseline="central" font-size="12" fill="#374151">MEL</text>
  <rect x="90" y="88" width="490.0" height="24" rx="2" fill="#7b2d8b"/>
  <text x="574.0" y="100.0" text-anchor="end" dominant-baseline="central" font-size="11" fill="white">3,402 ns  (4064 B)</text>
  <text x="82" y="128.0" text-anchor="end" dominant-baseline="central" font-size="12" fill="#374151">MELSrcGen</text>
  <rect x="90" y="116" width="452.4" height="24" rx="2" fill="#b185c9"/>
  <text x="536.3988794431314" y="128.0" text-anchor="end" dominant-baseline="central" font-size="11" fill="white">3,141 ns  (4064 B)</text>
  <text x="82" y="156.0" text-anchor="end" dominant-baseline="central" font-size="12" fill="#374151">Serilog</text>
  <rect x="90" y="144" width="310.0" height="24" rx="2" fill="#e63946"/>
  <text x="393.99426787541006" y="156.0" text-anchor="end" dominant-baseline="central" font-size="11" fill="white">2,152 ns  (3960 B)</text>
  <text x="82" y="184.0" text-anchor="end" dominant-baseline="central" font-size="12" fill="#374151">ZLogger</text>
  <rect x="90" y="172" width="286.4" height="24" rx="2" fill="#2a9d8f"/>
  <text x="370.4426140839771" y="184.0" text-anchor="end" dominant-baseline="central" font-size="11" fill="white">1,989 ns  (449 B)</text>
  <text x="82" y="212.0" text-anchor="end" dominant-baseline="central" font-size="12" fill="#374151">NLog</text>
  <rect x="90" y="200" width="314.1" height="24" rx="2" fill="#f4a261"/>
  <text x="398.0575799263936" y="212.0" text-anchor="end" dominant-baseline="central" font-size="11" fill="white">2,180 ns  (4136 B)</text>
  <text x="82" y="240.0" text-anchor="end" dominant-baseline="central" font-size="12" fill="#374151">Log4Net</text>
  <rect x="90" y="228" width="281.5" height="24" rx="2" fill="#8d99ae"/>
  <text x="365.5453219984244" y="240.0" text-anchor="end" dominant-baseline="central" font-size="11" fill="white">1,955 ns  (4544 B)</text>
  <text x="82" y="268.0" text-anchor="end" dominant-baseline="central" font-size="12" fill="#374151">ZeroLog</text>
  <rect x="90" y="256" width="275.7" height="24" rx="2" fill="#e76f51"/>
  <text x="359.66136959563534" y="268.0" text-anchor="end" dominant-baseline="central" font-size="11" fill="white">1,914 ns  (2832 B)</text>
</svg>
