<svg xmlns="http://www.w3.org/2000/svg"
     width="600" height="284"
     viewBox="0 0 600 284"
     font-family="system-ui, -apple-system, sans-serif">
  <rect width="600" height="284" fill="white"/>
  <text x="82" y="16.0" text-anchor="end" dominant-baseline="central" font-size="12" fill="#374151">Clip</text>
  <rect x="90" y="4" width="3.0" height="24" rx="2" fill="#0077b6"/>
  <text x="99" y="16.0" text-anchor="start" dominant-baseline="central" font-size="11" fill="#374151">0.00 ns</text>
  <text x="82" y="44.0" text-anchor="end" dominant-baseline="central" font-size="12" fill="#374151">ClipZero</text>
  <rect x="90" y="32" width="3.0" height="24" rx="2" fill="#00a0c4"/>
  <text x="99" y="44.0" text-anchor="start" dominant-baseline="central" font-size="11" fill="#374151">0.00 ns</text>
  <text x="82" y="72.0" text-anchor="end" dominant-baseline="central" font-size="12" fill="#374151">ClipMEL</text>
  <rect x="90" y="60" width="490.0" height="24" rx="2" fill="#40c9e0"/>
  <text x="574.0" y="72.0" text-anchor="end" dominant-baseline="central" font-size="11" fill="white">5.17 ns</text>
  <text x="82" y="100.0" text-anchor="end" dominant-baseline="central" font-size="12" fill="#374151">MEL</text>
  <rect x="90" y="88" width="463.7" height="24" rx="2" fill="#7b2d8b"/>
  <text x="547.6692651411106" y="100.0" text-anchor="end" dominant-baseline="central" font-size="11" fill="white">4.89 ns</text>
  <text x="82" y="128.0" text-anchor="end" dominant-baseline="central" font-size="12" fill="#374151">MELSrcGen</text>
  <rect x="90" y="116" width="45.3" height="24" rx="2" fill="#b185c9"/>
  <text x="141.25891250942993" y="128.0" text-anchor="start" dominant-baseline="central" font-size="11" fill="#374151">0.48 ns</text>
  <text x="82" y="156.0" text-anchor="end" dominant-baseline="central" font-size="12" fill="#374151">Serilog</text>
  <rect x="90" y="144" width="49.5" height="24" rx="2" fill="#e63946"/>
  <text x="145.4672804998356" y="156.0" text-anchor="start" dominant-baseline="central" font-size="11" fill="#374151">0.52 ns</text>
  <text x="82" y="184.0" text-anchor="end" dominant-baseline="central" font-size="12" fill="#374151">ZLogger</text>
  <rect x="90" y="172" width="284.7" height="24" rx="2" fill="#2a9d8f"/>
  <text x="368.69988587345495" y="184.0" text-anchor="end" dominant-baseline="central" font-size="11" fill="white">3.00 ns</text>
  <text x="82" y="212.0" text-anchor="end" dominant-baseline="central" font-size="12" fill="#374151">NLog</text>
  <rect x="90" y="200" width="3.0" height="24" rx="2" fill="#f4a261"/>
  <text x="99" y="212.0" text-anchor="start" dominant-baseline="central" font-size="11" fill="#374151">0.00 ns</text>
  <text x="82" y="240.0" text-anchor="end" dominant-baseline="central" font-size="12" fill="#374151">Log4Net</text>
  <rect x="90" y="228" width="276.1" height="24" rx="2" fill="#8d99ae"/>
  <text x="360.05567054181097" y="240.0" text-anchor="end" dominant-baseline="central" font-size="11" fill="white">2.91 ns</text>
  <text x="82" y="268.0" text-anchor="end" dominant-baseline="central" font-size="12" fill="#374151">ZeroLog</text>
  <rect x="90" y="256" width="31.0" height="24" rx="2" fill="#e76f51"/>
  <text x="127.0224964698145" y="268.0" text-anchor="start" dominant-baseline="central" font-size="11" fill="#374151">0.33 ns</text>
</svg>
