<svg xmlns="http://www.w3.org/2000/svg"
     width="600" height="228"
     viewBox="0 0 600 228"
     font-family="system-ui, -apple-system, sans-serif">
  <rect width="600" height="228" fill="white"/>
  <text x="82" y="16.0" text-anchor="end" dominant-baseline="central" font-size="12" fill="#374151">Clip</text>
  <rect x="90" y="4" width="16.1" height="24" rx="2" fill="#0077b6"/>
  <text x="112.08206327799591" y="16.0" text-anchor="start" dominant-baseline="central" font-size="11" fill="#374151">28 ns</text>
  <text x="82" y="44.0" text-anchor="end" dominant-baseline="central" font-size="12" fill="#374151">ClipZero</text>
  <rect x="90" y="32" width="18.7" height="24" rx="2" fill="#00a0c4"/>
  <text x="114.67858549451599" y="44.0" text-anchor="start" dominant-baseline="central" font-size="11" fill="#374151">32 ns</text>
  <text x="82" y="72.0" text-anchor="end" dominant-baseline="central" font-size="12" fill="#374151">ClipMEL</text>
  <rect x="90" y="60" width="47.1" height="24" rx="2" fill="#40c9e0"/>
  <text x="143.1350654620535" y="72.0" text-anchor="start" dominant-baseline="central" font-size="11" fill="#374151">81 ns  (320 B)</text>
  <text x="82" y="100.0" text-anchor="end" dominant-baseline="central" font-size="12" fill="#374151">MEL</text>
  <rect x="90" y="88" width="490.0" height="24" rx="2" fill="#7b2d8b"/>
  <text x="574.0" y="100.0" text-anchor="end" dominant-baseline="central" font-size="11" fill="white">838 ns  (784 B)</text>
  <text x="82" y="128.0" text-anchor="end" dominant-baseline="central" font-size="12" fill="#374151">MELSrcGen</text>
  <rect x="90" y="116" width="469.5" height="24" rx="2" fill="#b185c9"/>
  <text x="553.537767487379" y="128.0" text-anchor="end" dominant-baseline="central" font-size="11" fill="white">803 ns  (752 B)</text>
  <text x="82" y="156.0" text-anchor="end" dominant-baseline="central" font-size="12" fill="#374151">Serilog</text>
  <rect x="90" y="144" width="144.6" height="24" rx="2" fill="#e63946"/>
  <text x="228.59236892670876" y="156.0" text-anchor="end" dominant-baseline="central" font-size="11" fill="white">247 ns  (608 B)</text>
  <text x="82" y="184.0" text-anchor="end" dominant-baseline="central" font-size="12" fill="#374151">ZLogger</text>
  <rect x="90" y="172" width="190.4" height="24" rx="2" fill="#2a9d8f"/>
  <text x="274.38238909642075" y="184.0" text-anchor="end" dominant-baseline="central" font-size="11" fill="white">326 ns</text>
  <text x="82" y="212.0" text-anchor="end" dominant-baseline="central" font-size="12" fill="#374151">NLog</text>
  <rect x="90" y="200" width="81.2" height="24" rx="2" fill="#f4a261"/>
  <text x="177.16471135829283" y="212.0" text-anchor="start" dominant-baseline="central" font-size="11" fill="#374151">139 ns  (291 B)</text>
</svg>
