<svg xmlns="http://www.w3.org/2000/svg"
     width="600" height="228"
     viewBox="0 0 600 228"
     font-family="system-ui, -apple-system, sans-serif">
  <rect width="600" height="228" fill="white"/>
  <text x="82" y="16.0" text-anchor="end" dominant-baseline="central" font-size="12" fill="#374151">Clip</text>
  <rect x="90" y="4" width="46.0" height="24" rx="2" fill="#0077b6"/>
  <text x="141.99681020733652" y="16.0" text-anchor="start" dominant-baseline="central" font-size="11" fill="#374151">124 ns  (232 B)</text>
  <text x="82" y="44.0" text-anchor="end" dominant-baseline="central" font-size="12" fill="#374151">ClipZero</text>
  <rect x="90" y="32" width="39.6" height="24" rx="2" fill="#00a0c4"/>
  <text x="135.61828814460392" y="44.0" text-anchor="start" dominant-baseline="central" font-size="11" fill="#374151">106 ns  (176 B)</text>
  <text x="82" y="72.0" text-anchor="end" dominant-baseline="central" font-size="12" fill="#374151">ClipMEL</text>
  <rect x="90" y="60" width="72.0" height="24" rx="2" fill="#40c9e0"/>
  <text x="167.9946836788942" y="72.0" text-anchor="start" dominant-baseline="central" font-size="11" fill="#374151">193 ns  (688 B)</text>
  <text x="82" y="100.0" text-anchor="end" dominant-baseline="central" font-size="12" fill="#374151">MEL</text>
  <rect x="90" y="88" width="487.6" height="24" rx="2" fill="#7b2d8b"/>
  <text x="571.6406166932481" y="100.0" text-anchor="end" dominant-baseline="central" font-size="11" fill="white">1,310 ns  (1440 B)</text>
  <text x="82" y="128.0" text-anchor="end" dominant-baseline="central" font-size="12" fill="#374151">MELSrcGen</text>
  <rect x="90" y="116" width="490.0" height="24" rx="2" fill="#b185c9"/>
  <text x="574.0" y="128.0" text-anchor="end" dominant-baseline="central" font-size="11" fill="white">1,317 ns  (1432 B)</text>
  <text x="82" y="156.0" text-anchor="end" dominant-baseline="central" font-size="12" fill="#374151">Serilog</text>
  <rect x="90" y="144" width="252.3" height="24" rx="2" fill="#e63946"/>
  <text x="336.2977139819245" y="156.0" text-anchor="end" dominant-baseline="central" font-size="11" fill="white">678 ns  (1432 B)</text>
  <text x="82" y="184.0" text-anchor="end" dominant-baseline="central" font-size="12" fill="#374151">ZLogger</text>
  <rect x="90" y="172" width="217.0" height="24" rx="2" fill="#2a9d8f"/>
  <text x="301.0409356725146" y="184.0" text-anchor="end" dominant-baseline="central" font-size="11" fill="white">583 ns  (200 B)</text>
  <text x="82" y="212.0" text-anchor="end" dominant-baseline="central" font-size="12" fill="#374151">NLog</text>
  <rect x="90" y="200" width="164.3" height="24" rx="2" fill="#f4a261"/>
  <text x="248.31206804891013" y="212.0" text-anchor="end" dominant-baseline="central" font-size="11" fill="white">442 ns  (1291 B)</text>
</svg>
