<svg xmlns="http://www.w3.org/2000/svg"
     width="600" height="228"
     viewBox="0 0 600 228"
     font-family="system-ui, -apple-system, sans-serif">
  <rect width="600" height="228" fill="white"/>
  <text x="82" y="16.0" text-anchor="end" dominant-baseline="central" font-size="12" fill="#374151">Clip</text>
  <rect x="90" y="4" width="47.1" height="24" rx="2" fill="#0077b6"/>
  <text x="143.0715214025713" y="16.0" text-anchor="start" dominant-baseline="central" font-size="11" fill="#374151">186 ns  (72 B)</text>
  <text x="82" y="44.0" text-anchor="end" dominant-baseline="central" font-size="12" fill="#374151">ClipZero</text>
  <rect x="90" y="32" width="33.8" height="24" rx="2" fill="#00a0c4"/>
  <text x="129.75662115351756" y="44.0" text-anchor="start" dominant-baseline="central" font-size="11" fill="#374151">133 ns</text>
  <text x="82" y="72.0" text-anchor="end" dominant-baseline="central" font-size="12" fill="#374151">ClipMEL</text>
  <rect x="90" y="60" width="122.6" height="24" rx="2" fill="#40c9e0"/>
  <text x="206.64271401276852" y="72.0" text-anchor="end" dominant-baseline="central" font-size="11" fill="white">483 ns  (1160 B)</text>
  <text x="82" y="100.0" text-anchor="end" dominant-baseline="central" font-size="12" fill="#374151">MEL</text>
  <rect x="90" y="88" width="488.4" height="24" rx="2" fill="#7b2d8b"/>
  <text x="572.3914545049734" y="100.0" text-anchor="end" dominant-baseline="central" font-size="11" fill="white">1,925 ns  (1824 B)</text>
  <text x="82" y="128.0" text-anchor="end" dominant-baseline="central" font-size="12" fill="#374151">MELSrcGen</text>
  <rect x="90" y="116" width="490.0" height="24" rx="2" fill="#b185c9"/>
  <text x="574.0" y="128.0" text-anchor="end" dominant-baseline="central" font-size="11" fill="white">1,931 ns  (2272 B)</text>
  <text x="82" y="156.0" text-anchor="end" dominant-baseline="central" font-size="12" fill="#374151">Serilog</text>
  <rect x="90" y="144" width="231.3" height="24" rx="2" fill="#e63946"/>
  <text x="315.3260947232707" y="156.0" text-anchor="end" dominant-baseline="central" font-size="11" fill="white">912 ns  (1408 B)</text>
  <text x="82" y="184.0" text-anchor="end" dominant-baseline="central" font-size="12" fill="#374151">ZLogger</text>
  <rect x="90" y="172" width="292.9" height="24" rx="2" fill="#2a9d8f"/>
  <text x="376.89735982312527" y="184.0" text-anchor="end" dominant-baseline="central" font-size="11" fill="white">1,154 ns  (12 B)</text>
  <text x="82" y="212.0" text-anchor="end" dominant-baseline="central" font-size="12" fill="#374151">NLog</text>
  <rect x="90" y="200" width="200.3" height="24" rx="2" fill="#f4a261"/>
  <text x="284.2689884068327" y="212.0" text-anchor="end" dominant-baseline="central" font-size="11" fill="white">789 ns  (1387 B)</text>
</svg>
