<svg xmlns="http://www.w3.org/2000/svg"
     width="600" height="228"
     viewBox="0 0 600 228"
     font-family="system-ui, -apple-system, sans-serif">
  <rect width="600" height="228" fill="white"/>
  <text x="82" y="16.0" text-anchor="end" dominant-baseline="central" font-size="12" fill="#374151">Clip</text>
  <rect x="90" y="4" width="212.4" height="24" rx="2" fill="#0077b6"/>
  <text x="296.4114475537506" y="16.0" text-anchor="end" dominant-baseline="central" font-size="11" fill="white">2,164 ns  (2480 B)</text>
  <text x="82" y="44.0" text-anchor="end" dominant-baseline="central" font-size="12" fill="#374151">ClipZero</text>
  <rect x="90" y="32" width="213.1" height="24" rx="2" fill="#00a0c4"/>
  <text x="297.14284798371506" y="44.0" text-anchor="end" dominant-baseline="central" font-size="11" fill="white">2,171 ns  (2448 B)</text>
  <text x="82" y="72.0" text-anchor="end" dominant-baseline="central" font-size="12" fill="#374151">ClipMEL</text>
  <rect x="90" y="60" width="226.1" height="24" rx="2" fill="#40c9e0"/>
  <text x="310.1087613777296" y="72.0" text-anchor="end" dominant-baseline="central" font-size="11" fill="white">2,303 ns  (3080 B)</text>
  <text x="82" y="100.0" text-anchor="end" dominant-baseline="central" font-size="12" fill="#374151">MEL</text>
  <rect x="90" y="88" width="368.3" height="24" rx="2" fill="#7b2d8b"/>
  <text x="452.28515099847533" y="100.0" text-anchor="end" dominant-baseline="central" font-size="11" fill="white">3,751 ns  (4360 B)</text>
  <text x="82" y="128.0" text-anchor="end" dominant-baseline="central" font-size="12" fill="#374151">MELSrcGen</text>
  <rect x="90" y="116" width="372.6" height="24" rx="2" fill="#b185c9"/>
  <text x="456.588141715971" y="128.0" text-anchor="end" dominant-baseline="central" font-size="11" fill="white">3,795 ns  (4368 B)</text>
  <text x="82" y="156.0" text-anchor="end" dominant-baseline="central" font-size="12" fill="#374151">Serilog</text>
  <rect x="90" y="144" width="235.1" height="24" rx="2" fill="#e63946"/>
  <text x="319.06915295395214" y="156.0" text-anchor="end" dominant-baseline="central" font-size="11" fill="white">2,394 ns  (3760 B)</text>
  <text x="82" y="184.0" text-anchor="end" dominant-baseline="central" font-size="12" fill="#374151">ZLogger</text>
  <rect x="90" y="172" width="490.0" height="24" rx="2" fill="#2a9d8f"/>
  <text x="574.0" y="184.0" text-anchor="end" dominant-baseline="central" font-size="11" fill="white">4,991 ns  (459 B)</text>
  <text x="82" y="212.0" text-anchor="end" dominant-baseline="central" font-size="12" fill="#374151">NLog</text>
  <rect x="90" y="200" width="230.3" height="24" rx="2" fill="#f4a261"/>
  <text x="314.28412517456036" y="212.0" text-anchor="end" dominant-baseline="central" font-size="11" fill="white">2,346 ns  (4435 B)</text>
</svg>
